<svg width="40" height="39" viewBox="0 0 40 39" fill="none" xmlns="http://www.w3.org/2000/svg">
<path d="M15.6033 0.779999C14.5955 0.779999 13.7357 1.43852 13.4095 2.34H9.53389C9.45443 2.31909 9.37216 2.31086 9.29014 2.31562C9.26538 2.32254 9.24097 2.33067 9.21701 2.34H4.68326C3.40019 2.34 2.34326 3.39692 2.34326 4.68V31.98C2.34326 33.2631 3.40019 34.32 4.68326 34.32H18.7233C18.7233 35.6031 19.7802 36.66 21.0633 36.66H35.1033C36.3863 36.66 37.4433 35.6031 37.4433 34.32V16.38C37.4433 15.0969 36.3863 14.04 35.1033 14.04H28.8633V4.68C28.8633 3.39692 27.8063 2.34 26.5233 2.34H17.797C17.4708 1.43852 16.611 0.779999 15.6033 0.779999ZM15.6033 2.34C15.9924 2.34 16.2922 2.60789 16.3589 2.97375C16.3405 3.07038 16.3405 3.16962 16.3589 3.26625C16.2922 3.63211 15.9924 3.9 15.6033 3.9C15.188 3.9 14.8587 3.59699 14.8233 3.19312C14.8244 3.16876 14.8244 3.14436 14.8233 3.12C14.8233 2.67998 15.1632 2.34 15.6033 2.34ZM4.68326 3.9H8.58326V6.24C8.58326 7.52307 9.64019 8.58 10.9233 8.58H20.2833C21.5663 8.58 22.6233 7.52307 22.6233 6.24V3.9H26.5233C26.964 3.9 27.3033 4.23927 27.3033 4.68V14.04H21.0633C19.7802 14.04 18.7233 15.0969 18.7233 16.38V32.76H4.68326C4.24254 32.76 3.90326 32.4207 3.90326 31.98V4.68C3.90326 4.23927 4.24254 3.9 4.68326 3.9ZM10.1433 3.9H13.4095C13.7357 4.80148 14.5955 5.46 15.6033 5.46C16.611 5.46 17.4708 4.80148 17.797 3.9H21.0633V6.24C21.0633 6.68072 20.724 7.02 20.2833 7.02H10.9233C10.4825 7.02 10.1433 6.68072 10.1433 6.24V3.9ZM10.9233 11.7V16.38H9.36326V14.04H7.80326V16.38H6.24326V17.94H17.1633V16.38H15.6033V13.26H14.0433V16.38H12.4833V11.7H10.9233ZM21.0633 15.6H27.937H28.2539H35.1033C35.544 15.6 35.8833 15.9393 35.8833 16.38V34.32C35.8833 34.7607 35.544 35.1 35.1033 35.1H21.0633C20.6225 35.1 20.2833 34.7607 20.2833 34.32V33.6862C20.3049 33.5817 20.3049 33.4739 20.2833 33.3694V16.38C20.2833 15.9393 20.6225 15.6 21.0633 15.6ZM22.477 17.16C22.2964 17.1945 22.1337 17.2916 22.0178 17.4343C21.9018 17.5771 21.84 17.7561 21.8433 17.94V21.06C21.8433 21.2669 21.9255 21.4652 22.0717 21.6115C22.218 21.7578 22.4164 21.84 22.6233 21.84H33.5433C33.7501 21.84 33.9485 21.7578 34.0948 21.6115C34.2411 21.4652 34.3232 21.2669 34.3233 21.06V17.94C34.3232 17.7331 34.2411 17.5347 34.0948 17.3885C33.9485 17.2422 33.7501 17.16 33.5433 17.16H22.6233C22.5989 17.1589 22.5745 17.1589 22.5501 17.16C22.5258 17.1589 22.5014 17.1589 22.477 17.16ZM23.4033 18.72H32.7633V20.28H23.4033V18.72ZM10.9233 21.06C8.34781 21.06 6.24326 23.1645 6.24326 25.74C6.24326 28.3154 8.34781 30.42 10.9233 30.42C13.4987 30.42 15.6033 28.3154 15.6033 25.74C15.6033 23.1645 13.4987 21.06 10.9233 21.06ZM10.9233 22.62V25.74H14.0433C14.0433 27.4724 12.6556 28.86 10.9233 28.86C9.1909 28.86 7.80326 27.4724 7.80326 25.74C7.80326 24.0076 9.1909 22.62 10.9233 22.62ZM22.6233 23.4C22.1927 23.4 21.8433 23.7494 21.8433 24.18V24.96C21.8433 25.3906 22.1927 25.74 22.6233 25.74H24.1833C24.6138 25.74 24.9633 25.3906 24.9633 24.96V24.18C24.9633 23.7494 24.6138 23.4 24.1833 23.4H22.6233ZM27.3033 23.4C26.8727 23.4 26.5233 23.7494 26.5233 24.18V24.96C26.5233 25.3906 26.8727 25.74 27.3033 25.74H28.8633C29.2938 25.74 29.6433 25.3906 29.6433 24.96V24.18C29.6433 23.7494 29.2938 23.4 28.8633 23.4H27.3033ZM31.9833 23.4C31.5527 23.4 31.2033 23.7494 31.2033 24.18V24.96C31.2033 25.3906 31.5527 25.74 31.9833 25.74H33.5433C33.9738 25.74 34.3233 25.3906 34.3233 24.96V24.18C34.3233 23.7494 33.9738 23.4 33.5433 23.4H31.9833ZM22.6233 27.3C22.1927 27.3 21.8433 27.6494 21.8433 28.08V28.86C21.8433 29.2906 22.1927 29.64 22.6233 29.64H24.1833C24.6138 29.64 24.9633 29.2906 24.9633 28.86V28.08C24.9633 27.6494 24.6138 27.3 24.1833 27.3H22.6233ZM27.3033 27.3C26.8727 27.3 26.5233 27.6494 26.5233 28.08V28.86C26.5233 29.2906 26.8727 29.64 27.3033 29.64H28.8633C29.2938 29.64 29.6433 29.2906 29.6433 28.86V28.08C29.6433 27.6494 29.2938 27.3 28.8633 27.3H27.3033ZM31.9833 27.3C31.5527 27.3 31.2033 27.6494 31.2033 28.08V28.86C31.2033 29.2906 31.5527 29.64 31.9833 29.64H33.5433C33.9738 29.64 34.3233 29.2906 34.3233 28.86V28.08C34.3233 27.6494 33.9738 27.3 33.5433 27.3H31.9833ZM22.6233 31.2C22.1927 31.2 21.8433 31.5494 21.8433 31.98V32.76C21.8433 33.1906 22.1927 33.54 22.6233 33.54H24.1833C24.6138 33.54 24.9633 33.1906 24.9633 32.76V31.98C24.9633 31.5494 24.6138 31.2 24.1833 31.2H22.6233ZM27.3033 31.2C26.8727 31.2 26.5233 31.5494 26.5233 31.98V32.76C26.5233 33.1906 26.8727 33.54 27.3033 33.54H28.8633C29.2938 33.54 29.6433 33.1906 29.6433 32.76V31.98C29.6433 31.5494 29.2938 31.2 28.8633 31.2H27.3033ZM31.9833 31.2C31.5527 31.2 31.2033 31.5494 31.2033 31.98V32.76C31.2033 33.1906 31.5527 33.54 31.9833 33.54H33.5433C33.9738 33.54 34.3233 33.1906 34.3233 32.76V31.98C34.3233 31.5494 33.9738 31.2 33.5433 31.2H31.9833Z" fill="#BFBFBF"/>
</svg>
