<svg width="44" height="43" viewBox="0 0 44 43" fill="none" xmlns="http://www.w3.org/2000/svg">
<path d="M36.3788 33.9854V32.1997C36.3788 31.9745 36.2895 31.7585 36.1304 31.5992C35.9713 31.4398 35.7554 31.3501 35.5302 31.3497V19.4503C35.6418 19.4503 35.7524 19.4284 35.8555 19.3856C35.9586 19.3429 36.0523 19.2803 36.1312 19.2014C36.2101 19.1225 36.2727 19.0287 36.3155 18.9256C36.3582 18.8225 36.3801 18.712 36.3801 18.6003V16.9003H37.6517C38.6331 16.9003 39.4591 16.2482 39.7101 15.2767C39.9644 14.2806 39.5414 13.2891 38.6563 12.805L25.8146 5.77921C24.8854 5.2679 23.8421 4.99979 22.7815 4.99979C21.7209 4.99979 20.6776 5.2679 19.7484 5.77921L6.912 12.8044C6.02556 13.2891 5.60193 14.2819 5.85624 15.2767C6.10458 16.2476 6.93059 16.9003 7.91463 16.9003H9.18419V18.6003C9.18419 18.8255 9.27355 19.0415 9.43266 19.2009C9.59176 19.3603 9.8076 19.45 10.0328 19.4503V31.3497C9.80737 31.3497 9.59119 31.4393 9.4318 31.5987C9.27241 31.7581 9.18286 31.9743 9.18286 32.1997V33.9854C8.22374 34.1826 7.36192 34.7045 6.74265 35.463C6.12338 36.2216 5.78453 37.1705 5.7832 38.1498L5.7832 38.9998H39.7798V38.1498C39.7784 37.1703 39.4394 36.2213 38.8199 35.4627C38.2003 34.7041 37.3382 34.1824 36.3788 33.9854ZM10.8814 33.0498H15.9802V33.8998H10.884L10.8814 33.0498ZM16.8301 31.3497V19.4503C16.9417 19.4503 17.0522 19.4284 17.1554 19.3856C17.2585 19.3429 17.3522 19.2803 17.4311 19.2014C17.51 19.1225 17.5726 19.0287 17.6153 18.9256C17.658 18.8225 17.68 18.712 17.68 18.6003V16.9003H18.5319V18.6003C18.5319 18.712 18.5539 18.8225 18.5966 18.9256C18.6393 19.0287 18.7019 19.1225 18.7809 19.2014C18.8598 19.2803 18.9535 19.3429 19.0566 19.3856C19.1597 19.4284 19.2702 19.4503 19.3818 19.4503V31.3497C19.1564 31.3497 18.9403 31.4393 18.7809 31.5987C18.6215 31.7581 18.5319 31.9743 18.5319 32.1997V33.8998H17.682V32.1997C17.682 31.9744 17.5926 31.7583 17.4333 31.5989C17.2741 31.4396 17.0581 31.3499 16.8328 31.3497H16.8301ZM21.0797 31.3497V19.4503H24.4793V31.3497H21.0797ZM25.3313 17.7497H20.2318V16.8997H25.3313V17.7497ZM20.2318 33.0498H25.3313V33.8998H20.2318V33.0498ZM26.1805 31.3497V19.4503C26.2921 19.4503 26.4026 19.4284 26.5058 19.3856C26.6089 19.3429 26.7026 19.2803 26.7815 19.2014C26.8604 19.1225 26.923 19.0287 26.9657 18.9256C27.0084 18.8225 27.0304 18.712 27.0304 18.6003V16.9003H27.8803V18.6003C27.8803 18.712 27.9023 18.8225 27.945 18.9256C27.9877 19.0287 28.0503 19.1225 28.1293 19.2014C28.2082 19.2803 28.3019 19.3429 28.405 19.3856C28.5081 19.4284 28.6186 19.4503 28.7302 19.4503V31.3497C28.5048 31.3497 28.2887 31.4393 28.1293 31.5987C27.9699 31.7581 27.8803 31.9743 27.8803 32.1997V33.8998H27.0311V32.1997C27.0311 31.9743 26.9415 31.7581 26.7822 31.5987C26.6228 31.4393 26.4066 31.3497 26.1812 31.3497H26.1805ZM29.5802 33.0498H34.679V33.8998H29.5802V33.0498ZM33.8297 31.3497H30.4301V19.4503H33.8297V31.3497ZM34.6797 17.7497H29.5802V16.8997H34.679L34.6797 17.7497ZM7.91198 15.2003C7.6331 15.2003 7.53615 14.9845 7.50295 14.8557C7.47971 14.7654 7.42792 14.4572 7.72606 14.2965L20.5644 7.2707C21.2436 6.89657 22.0064 6.70037 22.7818 6.70037C23.5572 6.70037 24.3201 6.89657 24.9993 7.2707L37.837 14.2965C38.1351 14.4592 38.0833 14.7654 38.0601 14.8557C38.0275 14.9845 37.9273 15.2003 37.651 15.2003H7.91198ZM15.9829 16.9003V17.7497H10.884V16.8997L15.9829 16.9003ZM11.7333 19.4503H15.1329V31.3497H11.7333V19.4503ZM7.62978 37.2998C7.80598 36.8031 8.13152 36.3731 8.56174 36.0687C8.99197 35.7643 9.5058 35.6005 10.0328 35.5998H35.5302C36.0573 35.6004 36.5713 35.7641 37.0017 36.0685C37.432 36.3729 37.7577 36.803 37.9339 37.2998H7.62978ZM22.7815 13.4996C23.2858 13.4996 23.7788 13.3501 24.1981 13.0699C24.6174 12.7897 24.9442 12.3914 25.1372 11.9255C25.3301 11.4595 25.3806 10.9468 25.2823 10.4521C25.1839 9.95749 24.941 9.50312 24.5844 9.1465C24.2279 8.78987 23.7735 8.54701 23.2789 8.44861C22.7843 8.35022 22.2717 8.40072 21.8058 8.59372C21.3399 8.78673 20.9416 9.11357 20.6615 9.53292C20.3813 9.95227 20.2318 10.4453 20.2318 10.9496C20.2325 11.6257 20.5013 12.2739 20.9793 12.752C21.4574 13.2301 22.1055 13.4989 22.7815 13.4996ZM22.7815 10.0996C22.9496 10.0996 23.1139 10.1495 23.2537 10.2429C23.3935 10.3363 23.5024 10.469 23.5667 10.6243C23.6311 10.7797 23.6479 10.9506 23.6151 11.1155C23.5823 11.2803 23.5014 11.4318 23.3825 11.5507C23.2636 11.6695 23.1122 11.7505 22.9473 11.7833C22.7825 11.8161 22.6116 11.7993 22.4563 11.7349C22.301 11.6706 22.1682 11.5616 22.0748 11.4219C21.9814 11.2821 21.9316 11.1177 21.9316 10.9496C21.9319 10.7244 22.0216 10.5084 22.181 10.3492C22.3403 10.19 22.5563 10.1005 22.7815 10.1003V10.0996Z" fill="#BFBFBF"/>
</svg>
