<svg width="52" height="52" viewBox="0 0 52 52" fill="none" xmlns="http://www.w3.org/2000/svg">
<g clip-path="url(#clip0_646_4073)">
<path d="M0 12.753C0 11.0619 0.671809 9.43999 1.86764 8.24416C3.06346 7.04833 4.68535 6.37653 6.37651 6.37653H44.6355C46.3267 6.37653 47.9486 7.04833 49.1444 8.24416C50.3402 9.43999 51.012 11.0619 51.012 12.753V15.9413H0V12.753ZM0 22.3178V38.2591C0 39.9502 0.671809 41.5721 1.86764 42.7679C3.06346 43.9637 4.68535 44.6356 6.37651 44.6356H44.6355C46.3267 44.6356 47.9486 43.9637 49.1444 42.7679C50.3402 41.5721 51.012 39.9502 51.012 38.2591V22.3178H0ZM9.56476 28.6943H12.753C13.5986 28.6943 14.4095 29.0302 15.0074 29.6281C15.6054 30.226 15.9413 31.037 15.9413 31.8825V35.0708C15.9413 35.9164 15.6054 36.7273 15.0074 37.3252C14.4095 37.9231 13.5986 38.2591 12.753 38.2591H9.56476C8.71918 38.2591 7.90824 37.9231 7.31032 37.3252C6.71241 36.7273 6.37651 35.9164 6.37651 35.0708V31.8825C6.37651 31.037 6.71241 30.226 7.31032 29.6281C7.90824 29.0302 8.71918 28.6943 9.56476 28.6943Z" fill="white"/>
</g>
<defs>
<clipPath id="clip0_646_4073">
<rect width="51.012" height="51.012" fill="white"/>
</clipPath>
</defs>
</svg>
