<svg width="52" height="52" viewBox="0 0 52 52" fill="none" xmlns="http://www.w3.org/2000/svg">
<g clip-path="url(#clip0_814_16)">
<path d="M0.216797 12.753C0.216797 11.0618 0.888605 9.43993 2.08443 8.2441C3.28026 7.04827 4.90215 6.37646 6.5933 6.37646H44.8523C46.5435 6.37646 48.1654 7.04827 49.3612 8.2441C50.557 9.43993 51.2288 11.0618 51.2288 12.753V15.9412H0.216797V12.753ZM0.216797 22.3177V38.259C0.216797 39.9501 0.888605 41.572 2.08443 42.7679C3.28026 43.9637 4.90215 44.6355 6.5933 44.6355H44.8523C46.5435 44.6355 48.1654 43.9637 49.3612 42.7679C50.557 41.572 51.2288 39.9501 51.2288 38.259V22.3177H0.216797ZM9.78156 28.6942H12.9698C13.8154 28.6942 14.6263 29.0301 15.2242 29.6281C15.8222 30.226 16.1581 31.0369 16.1581 31.8825V35.0707C16.1581 35.9163 15.8222 36.7273 15.2242 37.3252C14.6263 37.9231 13.8154 38.259 12.9698 38.259H9.78156C8.93598 38.259 8.12503 37.9231 7.52712 37.3252C6.92921 36.7273 6.5933 35.9163 6.5933 35.0707V31.8825C6.5933 31.0369 6.92921 30.226 7.52712 29.6281C8.12503 29.0301 8.93598 28.6942 9.78156 28.6942Z" fill="white"/>
</g>
<defs>
<clipPath id="clip0_814_16">
<rect width="51.012" height="51.012" fill="white" transform="translate(0.216797)"/>
</clipPath>
</defs>
</svg>
