<svg width="17" height="20" viewBox="0 0 17 20" fill="none" xmlns="http://www.w3.org/2000/svg">
<path d="M1 16.3965H16.3812" stroke="#091E46" stroke-linecap="round" stroke-linejoin="round"/>
<path d="M1.96094 9.6668C1.96094 5.95031 4.97375 2.9375 8.69023 2.9375V2.9375C12.4067 2.9375 15.4195 5.95031 15.4195 9.66679V16.3961H1.96094V9.6668Z" stroke="#091E46" stroke-linecap="round" stroke-linejoin="round"/>
<path d="M7.02525 16.3961V15.8961C6.84685 15.8961 6.68197 15.9912 6.59256 16.1456L7.02525 16.3961ZM10.3552 16.3961L10.7879 16.1456C10.6985 15.9912 10.5336 15.8961 10.3552 15.8961V16.3961ZM7.26758 17.3582C7.26758 17.098 7.33697 16.8556 7.45793 16.6467L6.59256 16.1456C6.38578 16.5026 6.26758 16.9174 6.26758 17.3582H7.26758ZM8.69023 18.7809C7.90452 18.7809 7.26758 18.1439 7.26758 17.3582H6.26758C6.26758 18.6962 7.35224 19.7809 8.69023 19.7809V18.7809ZM10.1129 17.3582C10.1129 18.1439 9.47595 18.7809 8.69023 18.7809V19.7809C10.0282 19.7809 11.1129 18.6962 11.1129 17.3582H10.1129ZM9.92253 16.6467C10.0435 16.8556 10.1129 17.098 10.1129 17.3582H11.1129C11.1129 16.9174 10.9947 16.5026 10.7879 16.1456L9.92253 16.6467ZM10.3552 15.8961H7.02525V16.8961H10.3552V15.8961Z" fill="#091E46"/>
<circle cx="12.6692" cy="3.04421" r="3.04421" fill="#FA5F1C"/>
</svg>
