<svg width="61" height="61" viewBox="0 0 61 61" fill="none" xmlns="http://www.w3.org/2000/svg">
<path d="M52.3027 1.65606C48.2401 2.51387 45.7619 5.54004 45.0828 10.4844C44.8445 12.1881 44.225 17.6209 44.094 19.1816C43.7246 23.2801 43.3553 27.2713 43.3076 27.5811C43.2719 27.7717 43.2004 28.6295 43.1289 29.4873C43.0693 30.3332 42.9264 32.0012 42.8311 33.1807C42.7238 34.3602 42.5928 35.9924 42.5332 36.8145C42.3068 39.6381 42.0805 40.9844 41.7111 41.7469C41.2227 42.7834 40.5197 43.5221 39.5785 43.9867C38.8518 44.3441 38.6969 44.3799 37.6484 44.3799C36.6 44.3799 36.4451 44.3441 35.7184 43.9867C33.7883 43.0336 32.9662 41.1988 33.2402 38.4109C33.4428 36.1711 33.0615 34.7533 31.9297 33.55C31.5484 33.1449 31.06 32.7875 30.5834 32.573C29.9162 32.2633 29.7256 32.2275 28.5342 32.2275C27.3904 32.2275 27.1522 32.2633 26.6279 32.5135C25.782 32.9305 24.8647 33.8479 24.4834 34.6342C24.0188 35.623 23.8639 36.5523 23.5899 39.8525C23.4588 41.4967 23.2682 43.1527 23.1729 43.534C22.601 45.7143 21.1356 47.0248 19.1102 47.1559C17.5256 47.2512 16.0602 46.6078 15.2024 45.4283C14.285 44.1654 14.1658 43.0455 14.5233 39.0781C14.6543 37.5412 14.8211 35.635 14.8807 34.8486C14.9522 34.0623 15.1428 31.8582 15.3096 29.9639C15.4764 28.0576 15.6908 25.5914 15.7861 24.4834C16.2627 18.7051 16.4295 17.7996 17.1563 16.7393C19.0863 13.9275 23.2086 14.1897 24.7574 17.2158C25.0672 17.8354 25.377 19.3246 25.377 20.2182C25.377 21.6836 25.9488 23.0775 26.9139 23.983C27.7359 24.7574 28.415 25.0314 29.6779 25.1029C30.9885 25.1863 31.7391 25.0076 32.6445 24.4C34.0266 23.4826 34.6699 22.0291 34.9082 19.3604C35.2537 15.3453 35.3967 13.6535 35.5039 12.3906C36.0639 5.84981 35.9805 4.84903 34.8606 3.59805C34.6223 3.33594 34.1457 3.00235 33.8002 2.84747C33.1926 2.56153 33.133 2.56153 29.4873 2.57344C23.018 2.59727 20.2063 3.2168 15.5121 5.65918C10.0674 8.49473 5.93321 12.7481 3.2168 18.2881C2.03731 20.6947 1.40587 22.5533 0.810163 25.377C0.643366 26.199 0.381257 28.3912 0.285944 29.7852C0.166803 31.7033 0.548054 35.2895 1.14376 37.6604C3.60997 47.6324 10.4248 55.1621 19.8012 58.2598C27.4858 60.8094 35.6707 60.166 42.7358 56.4727C45.3807 55.0906 47.5848 53.4346 49.7412 51.2066C52.0406 48.8477 53.4703 46.8104 54.9238 43.8199C56.9135 39.7453 57.9977 34.9201 58.6768 27.1641C58.9151 24.3285 59.1653 21.4453 59.3916 18.9434C59.4988 17.7996 59.6537 15.941 59.749 14.833C60.166 9.72188 60.4043 7.00547 60.5354 6.00469C60.6664 4.95625 60.6545 4.9086 60.3686 4.33672C59.6895 3.01426 58.1645 2.10879 55.8651 1.65606C54.4235 1.38203 53.6252 1.38203 52.3027 1.65606Z" fill="#810EA8"/>
</svg>
