<svg width="35" height="34" viewBox="0 0 35 34" fill="none" xmlns="http://www.w3.org/2000/svg">
<path d="M27.6997 1.41669H7.86637C6.36348 1.41669 4.92214 2.01371 3.85944 3.07642C2.79673 4.13912 2.19971 5.58046 2.19971 7.08335V17C2.19971 17.3757 2.34896 17.7361 2.61464 18.0018C2.88032 18.2674 3.24065 18.4167 3.61637 18.4167H10.6997V31.1667C10.699 31.4376 10.7761 31.7031 10.9217 31.9316C11.0674 32.1601 11.2755 32.342 11.5214 32.4559C11.7679 32.5693 12.0417 32.6096 12.3105 32.5719C12.5792 32.5343 12.8314 32.4202 13.0372 32.2434L17.0747 28.7867L21.1122 32.2434C21.3688 32.4628 21.6954 32.5834 22.033 32.5834C22.3707 32.5834 22.6973 32.4628 22.9539 32.2434L26.9914 28.7867L31.0289 32.2434C31.2855 32.4628 31.6121 32.5834 31.9497 32.5834C32.1547 32.5819 32.3572 32.5385 32.5447 32.4559C32.7906 32.342 32.9987 32.1601 33.1444 31.9316C33.29 31.7031 33.3671 31.4376 33.3664 31.1667V7.08335C33.3664 5.58046 32.7694 4.13912 31.7066 3.07642C30.6439 2.01371 29.2026 1.41669 27.6997 1.41669ZM5.03304 15.5834V7.08335C5.03304 6.33191 5.33155 5.61124 5.8629 5.07988C6.39426 4.54853 7.11493 4.25002 7.86637 4.25002C8.61782 4.25002 9.33849 4.54853 9.86984 5.07988C10.4012 5.61124 10.6997 6.33191 10.6997 7.08335V15.5834H5.03304ZM30.533 28.0925L27.9122 25.84C27.6556 25.6205 27.329 25.4999 26.9914 25.4999C26.6537 25.4999 26.3272 25.6205 26.0705 25.84L22.033 29.2967L17.9955 25.84C17.7389 25.6205 17.4124 25.4999 17.0747 25.4999C16.737 25.4999 16.4105 25.6205 16.1539 25.84L13.533 28.0925V7.08335C13.5313 6.08812 13.2674 5.1109 12.768 4.25002H27.6997C28.4512 4.25002 29.1718 4.54853 29.7032 5.07988C30.2345 5.61124 30.533 6.33191 30.533 7.08335V28.0925ZM27.6997 8.50002C27.6997 8.87574 27.5505 9.23608 27.2848 9.50175C27.0191 9.76743 26.6588 9.91669 26.283 9.91669H17.783C17.4073 9.91669 17.047 9.76743 16.7813 9.50175C16.5156 9.23608 16.3664 8.87574 16.3664 8.50002C16.3664 8.1243 16.5156 7.76396 16.7813 7.49829C17.047 7.23261 17.4073 7.08335 17.783 7.08335H26.283C26.6588 7.08335 27.0191 7.23261 27.2848 7.49829C27.5505 7.76396 27.6997 8.1243 27.6997 8.50002ZM27.6997 14.1667C27.6997 14.5424 27.5505 14.9027 27.2848 15.1684C27.0191 15.4341 26.6588 15.5834 26.283 15.5834H17.783C17.4073 15.5834 17.047 15.4341 16.7813 15.1684C16.5156 14.9027 16.3664 14.5424 16.3664 14.1667C16.3664 13.791 16.5156 13.4306 16.7813 13.165C17.047 12.8993 17.4073 12.75 17.783 12.75H26.283C26.6588 12.75 27.0191 12.8993 27.2848 13.165C27.5505 13.4306 27.6997 13.791 27.6997 14.1667ZM27.6997 19.8334C27.6997 20.2091 27.5505 20.5694 27.2848 20.8351C27.0191 21.1008 26.6588 21.25 26.283 21.25H17.783C17.4073 21.25 17.047 21.1008 16.7813 20.8351C16.5156 20.5694 16.3664 20.2091 16.3664 19.8334C16.3664 19.4576 16.5156 19.0973 16.7813 18.8316C17.047 18.5659 17.4073 18.4167 17.783 18.4167H26.283C26.6588 18.4167 27.0191 18.5659 27.2848 18.8316C27.5505 19.0973 27.6997 19.4576 27.6997 19.8334Z" fill="#BFBFBF"/>
</svg>
