<svg width="35" height="34" viewBox="0 0 35 34" fill="none" xmlns="http://www.w3.org/2000/svg">
<path d="M30.533 15.844V9.91664C30.533 9.54092 30.3838 9.18058 30.1181 8.91491C29.8524 8.64923 29.4921 8.49997 29.1164 8.49997H6.44971C6.07398 8.49997 5.71365 8.35072 5.44797 8.08504C5.1823 7.81937 5.03304 7.45903 5.03304 7.08331C5.03304 6.70758 5.1823 6.34725 5.44797 6.08157C5.71365 5.8159 6.07398 5.66664 6.44971 5.66664H29.1164C29.4921 5.66664 29.8524 5.51739 30.1181 5.25171C30.3838 4.98603 30.533 4.6257 30.533 4.24997C30.533 3.87425 30.3838 3.51392 30.1181 3.24824C29.8524 2.98256 29.4921 2.83331 29.1164 2.83331H6.44971C5.32254 2.83331 4.24153 3.28107 3.4445 4.0781C2.64747 4.87513 2.19971 5.95614 2.19971 7.08331V26.9166C2.19971 28.0438 2.64747 29.1248 3.4445 29.9218C4.24153 30.7189 5.32254 31.1666 6.44971 31.1666H29.1164C29.4921 31.1666 29.8524 31.0174 30.1181 30.7517C30.3838 30.486 30.533 30.1257 30.533 29.75V23.8226C31.3611 23.5341 32.0789 22.9951 32.5869 22.2803C33.0948 21.5654 33.3677 20.7102 33.3677 19.8333C33.3677 18.9564 33.0948 18.1012 32.5869 17.3864C32.0789 16.6715 31.3611 16.1325 30.533 15.844ZM27.6997 28.3333H6.44971C6.07398 28.3333 5.71365 28.1841 5.44797 27.9184C5.1823 27.6527 5.03304 27.2924 5.03304 26.9166V11.0726C5.48674 11.2404 5.966 11.3286 6.44971 11.3333H27.6997V15.5833H23.4497C22.3225 15.5833 21.2415 16.0311 20.4445 16.8281C19.6475 17.6251 19.1997 18.7061 19.1997 19.8333C19.1997 20.9605 19.6475 22.0415 20.4445 22.8385C21.2415 23.6355 22.3225 24.0833 23.4497 24.0833H27.6997V28.3333ZM29.1164 21.25H23.4497C23.074 21.25 22.7136 21.1007 22.448 20.835C22.1823 20.5694 22.033 20.209 22.033 19.8333C22.033 19.4576 22.1823 19.0972 22.448 18.8316C22.7136 18.5659 23.074 18.4166 23.4497 18.4166H29.1164C29.4921 18.4166 29.8524 18.5659 30.1181 18.8316C30.3838 19.0972 30.533 19.4576 30.533 19.8333C30.533 20.209 30.3838 20.5694 30.1181 20.835C29.8524 21.1007 29.4921 21.25 29.1164 21.25Z" fill="#BFBFBF"/>
</svg>
