<svg width="33" height="33" viewBox="0 0 33 33" fill="none" xmlns="http://www.w3.org/2000/svg">
<path d="M20.437 30.3633H20.2637C14.3437 30.3633 11.4904 28.03 10.997 22.8033C10.9437 22.2566 11.3437 21.7633 11.9037 21.71C12.437 21.6566 12.9437 22.07 12.997 22.6166C13.3837 26.8033 15.357 28.3633 20.277 28.3633H20.4504C25.877 28.3633 27.797 26.4433 27.797 21.0166V12.3233C27.797 6.89662 25.877 4.97662 20.4504 4.97662H20.277C15.3304 4.97662 13.357 6.56329 12.997 10.83C12.9304 11.3766 12.4637 11.79 11.9037 11.7366C11.3437 11.6966 10.9437 11.2033 10.9837 10.6566C11.437 5.34996 14.3037 2.97662 20.2637 2.97662H20.437C26.9837 2.97662 29.7837 5.77662 29.7837 12.3233V21.0166C29.7837 27.5633 26.9837 30.3633 20.437 30.3633Z" fill="#EF4444"/>
<path d="M20.1172 17.6699H4.94385C4.39718 17.6699 3.94385 17.2166 3.94385 16.6699C3.94385 16.1233 4.39718 15.6699 4.94385 15.6699H20.1172C20.6638 15.6699 21.1172 16.1233 21.1172 16.6699C21.1172 17.2166 20.6638 17.6699 20.1172 17.6699Z" fill="#EF4444"/>
<path d="M7.91743 22.1365C7.6641 22.1365 7.41077 22.0432 7.21077 21.8432L2.7441 17.3765C2.35743 16.9899 2.35743 16.3499 2.7441 15.9632L7.21077 11.4965C7.59743 11.1099 8.23743 11.1099 8.6241 11.4965C9.01077 11.8832 9.01077 12.5232 8.6241 12.9099L4.8641 16.6699L8.6241 20.4299C9.01077 20.8165 9.01077 21.4565 8.6241 21.8432C8.43743 22.0432 8.17077 22.1365 7.91743 22.1365Z" fill="#EF4444"/>
</svg>
