<svg width="35" height="34" viewBox="0 0 35 34" fill="none" xmlns="http://www.w3.org/2000/svg">
<g clip-path="url(#clip0_646_4033)">
<path d="M34.7429 2.53829C34.6692 1.18772 33.5951 0.113735 32.2445 0.0400241C29.5194 -0.108859 24.1867 0.0359735 19.0875 2.67343C16.488 4.01802 13.7388 6.29768 11.5448 8.9279C11.5178 8.96031 11.4915 8.99292 11.4646 9.02539L6.4855 9.41001C5.66591 9.47336 4.93591 9.90295 4.48262 10.5885L1.08568 15.7265C0.741892 16.2465 0.687239 16.8972 0.939384 17.4671C1.19159 18.0372 1.70983 18.4344 2.32575 18.5298L6.5207 19.1796C6.50589 19.2611 6.49101 19.3426 6.4774 19.4241C6.33775 20.2595 6.61453 21.1184 7.21789 21.7217L13.0611 27.565C13.5614 28.0653 14.2373 28.341 14.9299 28.341C15.0726 28.341 15.216 28.3293 15.3588 28.3054C15.4403 28.2918 15.5218 28.277 15.6033 28.2621L16.2531 32.4572C16.3485 33.0731 16.7457 33.5914 17.3156 33.8435C17.5528 33.9485 17.8037 34.0002 18.0535 34.0002C18.4044 34.0002 18.7527 33.898 19.0563 33.6973L24.1943 30.3003C24.88 29.8469 25.3095 29.1169 25.3727 28.2974L25.7573 23.3183C25.7898 23.2915 25.8225 23.2652 25.8549 23.2382C28.4852 21.0442 30.7649 18.295 32.1094 15.6954C34.747 10.596 34.8916 5.26327 34.7429 2.53829ZM23.0956 28.6384L18.1808 31.8879L17.5476 27.7996C19.6248 27.1888 21.6796 26.2107 23.6372 24.9003L23.3866 28.1439C23.371 28.3462 23.2649 28.5265 23.0956 28.6384ZM14.4698 26.1563L8.6265 20.3131C8.47742 20.1639 8.40849 19.9544 8.44229 19.7526C8.61601 18.7138 8.88595 17.7249 9.22011 16.7934L17.9876 25.5609C16.8688 25.9616 15.8666 26.2007 15.0303 26.3406C14.8281 26.3742 14.6189 26.3054 14.4698 26.1563ZM6.63897 11.3963L9.88251 11.1457C8.57205 13.1033 7.59389 15.1581 6.98315 17.2353L2.89491 16.6021L6.14444 11.6873C6.2564 11.5179 6.43669 11.4119 6.63897 11.3963ZM24.5789 21.7083C22.9697 23.0505 21.4076 24.0214 19.9678 24.7239L10.0586 14.8147C10.9789 12.9351 12.102 11.37 13.0746 10.204C15.105 7.76991 17.6302 5.67008 20.0028 4.44289C24.6827 2.02218 29.6135 1.89183 32.1361 2.02916C32.47 2.04735 32.7356 2.31291 32.7538 2.64687C32.8913 5.16951 32.7607 10.1002 30.3399 14.7802C29.1128 17.1527 27.013 19.6779 24.5789 21.7083Z" fill="#C4C4C4"/>
<path d="M24.0731 15.688C25.3482 15.6879 26.6239 15.2024 27.5947 14.2317C28.5354 13.291 29.0534 12.0403 29.0534 10.7101C29.0534 9.37982 28.5353 8.12912 27.5947 7.18848C25.6528 5.24656 22.4932 5.24669 20.5515 7.18848C19.6108 8.12912 19.0928 9.37982 19.0928 10.7101C19.0928 12.0403 19.6109 13.291 20.5515 14.2317C21.5225 15.2026 22.7975 15.6881 24.0731 15.688ZM21.9601 8.59708C22.5426 8.0145 23.3078 7.72324 24.073 7.72324C24.8382 7.72324 25.6034 8.0145 26.186 8.59708C26.7503 9.16147 27.0611 9.91186 27.0611 10.71C27.0611 11.5081 26.7503 12.2586 26.186 12.823C25.0209 13.9881 23.1251 13.988 21.96 12.823C21.3956 12.2586 21.0848 11.5082 21.0848 10.7101C21.0848 9.91193 21.3957 9.16147 21.9601 8.59708Z" fill="#C4C4C4"/>
<path d="M1.79928 28.0193C2.05422 28.0193 2.30915 27.9221 2.50359 27.7275L5.7557 24.4754C6.14471 24.0864 6.14471 23.4557 5.7557 23.0667C5.36676 22.6777 4.73603 22.6777 4.34703 23.0667L1.09498 26.3189C0.705971 26.7079 0.705971 27.3385 1.09498 27.7275C1.28942 27.922 1.54435 28.0193 1.79928 28.0193Z" fill="#C4C4C4"/>
<path d="M8.73605 26.0471C8.34711 25.6581 7.71638 25.6581 7.32737 26.0471L1.07496 32.2996C0.685951 32.6886 0.685951 33.3193 1.07496 33.7083C1.26946 33.9028 1.52433 34 1.77926 34C2.0342 34 2.28913 33.9028 2.48357 33.7082L8.73598 27.4558C9.12506 27.0668 9.12506 26.4361 8.73605 26.0471Z" fill="#C4C4C4"/>
<path d="M10.3075 29.0275L7.05543 32.2796C6.66642 32.6686 6.66642 33.2993 7.05543 33.6883C7.24993 33.8828 7.50486 33.9801 7.75973 33.9801C8.0146 33.9801 8.2696 33.8829 8.46404 33.6883L11.7162 30.4362C12.1052 30.0472 12.1052 29.4165 11.7162 29.0275C11.3272 28.6385 10.6965 28.6385 10.3075 29.0275Z" fill="#C4C4C4"/>
</g>
<defs>
<clipPath id="clip0_646_4033">
<rect width="34" height="34" fill="white" transform="translate(0.783203)"/>
</clipPath>
</defs>
</svg>
