<svg width="40" height="39" viewBox="0 0 40 39" fill="none" xmlns="http://www.w3.org/2000/svg">
<path d="M13.7832 8.125H10.5332C9.67125 8.125 8.8446 8.46741 8.23511 9.0769C7.62561 9.6864 7.2832 10.513 7.2832 11.375V30.875C7.2832 31.737 7.62561 32.5636 8.23511 33.1731C8.8446 33.7826 9.67125 34.125 10.5332 34.125H19.7908" stroke="#BFBFBF" stroke-width="2" stroke-linecap="round" stroke-linejoin="round"/>
<path d="M30.0332 22.75V29.25H36.5332" stroke="#BFBFBF" stroke-width="2" stroke-linecap="round" stroke-linejoin="round"/>
<path d="M30.0332 17.875V11.375C30.0332 10.513 29.6908 9.6864 29.0813 9.0769C28.4718 8.46741 27.6452 8.125 26.7832 8.125H23.5332" stroke="#BFBFBF" stroke-width="2" stroke-linecap="round" stroke-linejoin="round"/>
<path d="M20.2832 4.875H17.0332C15.2383 4.875 13.7832 6.33007 13.7832 8.125C13.7832 9.91993 15.2383 11.375 17.0332 11.375H20.2832C22.0781 11.375 23.5332 9.91993 23.5332 8.125C23.5332 6.33007 22.0781 4.875 20.2832 4.875Z" stroke="#BFBFBF" stroke-width="2" stroke-linecap="round" stroke-linejoin="round"/>
<path d="M30.0332 35.75C33.6231 35.75 36.5332 32.8399 36.5332 29.25C36.5332 25.6601 33.6231 22.75 30.0332 22.75C26.4434 22.75 23.5332 25.6601 23.5332 29.25C23.5332 32.8399 26.4434 35.75 30.0332 35.75Z" stroke="#BFBFBF" stroke-width="2" stroke-linecap="round" stroke-linejoin="round"/>
<path d="M13.7832 17.875H20.2832" stroke="#BFBFBF" stroke-width="2" stroke-linecap="round" stroke-linejoin="round"/>
<path d="M13.7832 24.375H18.6582" stroke="#BFBFBF" stroke-width="2" stroke-linecap="round" stroke-linejoin="round"/>
</svg>
