<svg width="26" height="30" viewBox="0 0 26 30" fill="none" xmlns="http://www.w3.org/2000/svg">
<path fill-rule="evenodd" clip-rule="evenodd" d="M14.1999 27.7499C14.1999 28.5333 14.8331 29.1666 15.6165 29.1666H19.8665C21.3696 29.1666 22.8104 28.5702 23.8729 27.5077C24.9354 26.4452 25.5332 25.003 25.5332 23.4999C25.5332 22.6868 25.5332 22.0833 25.5332 22.0833C25.5332 21.3013 24.8985 20.6666 24.1165 20.6666H15.6165C14.8331 20.6666 14.1999 21.3013 14.1999 22.0833V27.7499ZM9.94987 29.1666C10.7319 29.1666 11.3665 28.5333 11.3665 27.7499V13.5833C11.3665 12.8013 10.7319 12.1666 9.94987 12.1666H1.44987C0.666453 12.1666 0.0332031 12.8013 0.0332031 13.5833V23.4999C0.0332031 25.003 0.629616 26.4452 1.69212 27.5077C2.75462 28.5702 4.19679 29.1666 5.69987 29.1666H9.94987ZM22.6999 23.4999H17.0332V26.3333H19.8665C20.6174 26.3333 21.3385 26.0357 21.8697 25.5045C22.401 24.9732 22.6999 24.2522 22.6999 23.4999ZM8.5332 26.3333V14.9999H2.86654V23.4999C2.86654 24.2522 3.16403 24.9732 3.6967 25.5045C4.22795 26.0357 4.94762 26.3333 5.69987 26.3333H8.5332ZM15.6165 0.833252C14.8331 0.833252 14.1999 1.46792 14.1999 2.24992V16.4166C14.1999 17.2 14.8331 17.8333 15.6165 17.8333H24.1165C24.8985 17.8333 25.5332 17.2 25.5332 16.4166V6.49992C25.5332 4.99825 24.9354 3.55608 23.8729 2.49358C22.8104 1.43108 21.3696 0.833252 19.8665 0.833252H15.6165ZM17.0332 3.66659V14.9999H22.6999V6.49992C22.6999 5.74909 22.401 5.028 21.8697 4.49675C21.3385 3.9655 20.6174 3.66659 19.8665 3.66659H17.0332ZM11.3665 2.24992C11.3665 1.46792 10.7319 0.833252 9.94987 0.833252H5.69987C4.19679 0.833252 2.75462 1.43108 1.69212 2.49358C0.629616 3.55608 0.0332031 4.99825 0.0332031 6.49992V7.91659C0.0332031 8.7 0.666453 9.33325 1.44987 9.33325H9.94987C10.7319 9.33325 11.3665 8.7 11.3665 7.91659V2.24992ZM8.5332 3.66659H5.69987C4.94762 3.66659 4.22795 3.9655 3.6967 4.49675C3.16403 5.028 2.86654 5.74909 2.86654 6.49992H8.5332V3.66659Z" fill="#BFBFBF"/>
</svg>
